<?xml version="1.0"?>
<svg xmlns="http://www.w3.org/2000/svg" xmlns:xlink="http://www.w3.org/1999/xlink" xmlns:svgjs="http://svgjs.com/svgjs" version="1.1" width="512" height="512" x="0" y="0" viewBox="0 0 489.6 489.6" style="enable-background:new 0 0 512 512" xml:space="preserve" class=""><g>
<g xmlns="http://www.w3.org/2000/svg">
	<g>
		<path d="M255.467,255.467v106.667h91.819c8.619-32.107,13.739-68.437,14.571-106.667H255.467z" fill="#dadada" data-original="#000000" style="" class=""/>
	</g>
</g>
<g xmlns="http://www.w3.org/2000/svg">
	<g>
		<path d="M42.496,106.133h83.456c12.885-41.408,31.381-75.243,53.739-97.664C123.2,24.021,74.816,59.051,42.496,106.133z" fill="#dadada" data-original="#000000" style="" class=""/>
	</g>
</g>
<g xmlns="http://www.w3.org/2000/svg">
	<g>
		<path d="M106.411,255.467H0c1.664,38.656,12.011,75.051,29.547,107.051c0.64-0.128,1.237-0.384,1.92-0.384h88.512    C111.915,329.856,107.157,293.867,106.411,255.467z" fill="#dadada" data-original="#000000" style="" class=""/>
	</g>
</g>
<g xmlns="http://www.w3.org/2000/svg">
	<g>
		<path d="M347.285,127.467h-91.819v106.667h106.389C361.024,195.904,355.904,159.573,347.285,127.467z" fill="#dadada" data-original="#000000" style="" class=""/>
	</g>
</g>
<g xmlns="http://www.w3.org/2000/svg">
	<g>
		<path d="M255.467,0.64v105.493h85.376C321.365,48.085,290.368,7.573,255.467,0.64z" fill="#dadada" data-original="#000000" style="" class=""/>
	</g>
</g>
<g xmlns="http://www.w3.org/2000/svg">
	<g>
		<path d="M460.267,127.467H369.6c8.064,32.277,12.843,68.267,13.589,106.667h106.389    C487.915,195.627,477.675,159.381,460.267,127.467z" fill="#dadada" data-original="#000000" style="" class=""/>
	</g>
</g>
<g xmlns="http://www.w3.org/2000/svg">
	<g>
		<path d="M309.888,8.469c22.379,22.421,40.875,56.256,53.781,97.664h83.435C414.763,59.051,366.379,24.021,309.888,8.469z" fill="#dadada" data-original="#000000" style="" class=""/>
	</g>
</g>
<g xmlns="http://www.w3.org/2000/svg">
	<g>
		<path d="M29.312,127.467C11.904,159.381,1.664,195.627,0,234.133h106.389c0.768-38.4,5.525-74.389,13.589-106.667H29.312z" fill="#dadada" data-original="#000000" style="" class=""/>
	</g>
</g>
<g xmlns="http://www.w3.org/2000/svg">
	<g>
		<path d="M255.467,383.467V488.96c34.901-6.955,65.899-47.467,85.376-105.493H255.467z" fill="#dadada" data-original="#000000" style="" class=""/>
	</g>
</g>
<g xmlns="http://www.w3.org/2000/svg">
	<g>
		<path d="M363.648,383.467c-12.885,41.408-31.381,75.243-53.76,97.664c56.491-15.531,104.875-50.56,137.216-97.664H363.648z" fill="#dadada" data-original="#000000" style="" class=""/>
	</g>
</g>
<g xmlns="http://www.w3.org/2000/svg">
	<g>
		<path d="M383.211,255.467c-0.768,38.4-5.525,74.389-13.589,106.667h88.512c0.683,0,1.28,0.256,1.92,0.384    c17.536-32,27.883-68.395,29.547-107.051H383.211z" fill="#dadada" data-original="#000000" style="" class=""/>
	</g>
</g>
<g xmlns="http://www.w3.org/2000/svg">
	<g>
		<path d="M148.757,106.133h85.376V0.64C199.232,7.573,168.235,48.085,148.757,106.133z" fill="#dadada" data-original="#000000" style="" class=""/>
	</g>
</g>
<g xmlns="http://www.w3.org/2000/svg">
	<g>
		<path d="M148.757,383.467c19.477,58.048,50.475,98.56,85.376,105.493V383.467H148.757z" fill="#dadada" data-original="#000000" style="" class=""/>
	</g>
</g>
<g xmlns="http://www.w3.org/2000/svg">
	<g>
		<path d="M125.931,383.467H42.496c32.341,47.083,80.704,82.112,137.216,97.664C157.333,458.709,138.837,424.875,125.931,383.467z" fill="#dadada" data-original="#000000" style="" class=""/>
	</g>
</g>
<g xmlns="http://www.w3.org/2000/svg">
	<g>
		<path d="M127.744,255.467c0.832,38.229,5.952,74.56,14.571,106.667h91.819V255.467H127.744z" fill="#dadada" data-original="#000000" style="" class=""/>
	</g>
</g>
<g xmlns="http://www.w3.org/2000/svg">
	<g>
		<path d="M142.315,127.467c-8.619,32.107-13.739,68.437-14.571,106.667h106.389V127.467H142.315z" fill="#dadada" data-original="#000000" style="" class=""/>
	</g>
</g>
<g xmlns="http://www.w3.org/2000/svg">
</g>
<g xmlns="http://www.w3.org/2000/svg">
</g>
<g xmlns="http://www.w3.org/2000/svg">
</g>
<g xmlns="http://www.w3.org/2000/svg">
</g>
<g xmlns="http://www.w3.org/2000/svg">
</g>
<g xmlns="http://www.w3.org/2000/svg">
</g>
<g xmlns="http://www.w3.org/2000/svg">
</g>
<g xmlns="http://www.w3.org/2000/svg">
</g>
<g xmlns="http://www.w3.org/2000/svg">
</g>
<g xmlns="http://www.w3.org/2000/svg">
</g>
<g xmlns="http://www.w3.org/2000/svg">
</g>
<g xmlns="http://www.w3.org/2000/svg">
</g>
<g xmlns="http://www.w3.org/2000/svg">
</g>
<g xmlns="http://www.w3.org/2000/svg">
</g>
<g xmlns="http://www.w3.org/2000/svg">
</g>
</g></svg>
